<?xml version="1.0" standalone="no"?>
<!DOCTYPE svg PUBLIC "-//W3C//DTD SVG 20010904//EN"
 "http://www.w3.org/TR/2001/REC-SVG-20010904/DTD/svg10.dtd">
<svg version="1.0" xmlns="http://www.w3.org/2000/svg"
 width="718.000000pt" height="718.000000pt" viewBox="0 0 718.000000 718.000000"
 preserveAspectRatio="xMidYMid meet">
<metadata>
Created by potrace 1.14, written by Peter Selinger 2001-2017
</metadata>
<g transform="translate(0.000000,718.000000) scale(0.100000,-0.100000)"
fill="#000000" stroke="none">
<path d="M5197 6824 c-1 -1 -29 -5 -61 -8 -77 -9 -125 -15 -156 -22 -14 -3
-36 -8 -50 -10 -182 -33 -426 -138 -617 -267 -67 -45 -113 -70 -113 -62 0 15
-57 255 -66 278 -4 11 -123 14 -659 14 l-655 0 -1 -56 c-1 -113 -1 -186 1
-196 1 -5 2 -14 1 -20 -3 -14 -3 -128 -1 -140 1 -5 2 -12 1 -15 -3 -8 -3 -774
-1 -785 1 -5 2 -14 1 -20 -3 -14 -3 -128 -1 -140 1 -5 2 -14 1 -20 -1 -5 -2
-158 -2 -339 0 -375 11 -328 -99 -405 -70 -49 -140 -84 -221 -111 -63 -22 -73
-24 -134 -38 -42 -9 -262 -8 -310 2 -39 8 -80 23 -142 53 -80 39 -168 163
-187 263 -3 19 -8 46 -11 60 -3 14 -6 132 -6 263 l-2 238 -76 36 c-42 19 -103
48 -136 63 -82 38 -208 97 -275 128 -30 14 -57 26 -60 27 -3 1 -25 11 -50 22
-72 34 -221 103 -270 125 -25 12 -96 45 -158 74 -63 30 -115 54 -117 54 -3 0
-87 39 -283 131 -46 21 -85 39 -87 39 -6 0 3 -1424 9 -1475 16 -122 55 -310
76 -360 4 -11 23 -57 40 -103 37 -95 121 -240 166 -289 17 -18 29 -35 26 -38
-3 -3 0 -5 6 -5 17 0 15 -17 -5 -38 -10 -10 -35 -40 -55 -67 -21 -28 -48 -63
-60 -79 -66 -85 -168 -271 -220 -401 -56 -140 -104 -318 -123 -450 -3 -22 -8
-56 -11 -75 -2 -19 -6 -44 -9 -55 -24 -116 -25 -642 -1 -815 10 -70 19 -127
22 -145 2 -11 7 -36 10 -55 10 -55 12 -60 34 -143 38 -145 141 -388 180 -427
10 -10 70 -98 70 -103 0 -8 72 -88 150 -164 65 -64 235 -193 255 -193 4 0 19
-9 33 -19 15 -10 30 -19 34 -20 4 -1 29 -11 55 -22 113 -49 336 -114 433 -125
25 -3 58 -9 73 -14 34 -11 780 -8 817 3 14 4 48 12 75 18 64 13 79 17 83 19 1
2 5 3 10 4 107 28 261 96 380 168 34 21 67 38 73 38 5 0 9 -24 8 -57 -1 -32
-1 -76 0 -99 l1 -41 757 1 758 1 -2 128 -2 128 52 -31 c109 -65 349 -171 442
-194 6 -2 17 -5 25 -8 48 -16 90 -28 125 -34 22 -4 44 -9 49 -12 6 -3 19 -6
30 -8 26 -2 93 -13 126 -21 14 -3 158 -8 320 -11 354 -5 440 5 650 75 85 28
260 112 260 125 0 4 6 8 13 8 18 0 162 117 219 178 62 65 147 184 187 262 18
34 31 63 29 65 -2 2 -34 17 -72 34 -38 18 -101 47 -140 65 -68 32 -122 57
-286 133 -109 50 -141 65 -284 132 -70 34 -130 61 -132 61 -2 0 -50 22 -108
49 -57 28 -126 60 -153 72 -26 12 -86 39 -131 60 -46 22 -89 39 -95 39 -7 0
-21 -20 -32 -43 -10 -23 -41 -64 -67 -90 -86 -86 -208 -125 -386 -124 -107 0
-144 6 -247 39 -33 10 -64 20 -70 21 -24 7 -112 52 -149 76 -57 36 -62 40
-120 93 l-51 47 -2 665 c-2 731 -7 677 55 638 12 -8 22 -11 22 -7 0 5 8 1 18
-8 25 -22 240 -93 357 -118 178 -37 241 -42 510 -42 230 0 291 4 395 24 30 6
69 13 85 15 107 19 339 100 445 157 55 30 215 132 237 152 6 5 30 25 53 44 51
43 175 170 198 202 9 13 21 29 28 36 20 20 124 181 124 191 0 5 8 20 18 33 52
69 182 433 197 556 2 12 6 34 9 50 36 161 50 341 49 623 0 309 -12 451 -55
650 -11 52 -21 100 -22 105 -4 18 -37 130 -43 145 -3 8 -7 17 -7 20 -3 15 -33
85 -68 160 -123 263 -338 476 -618 612 -80 39 -265 109 -287 109 -2 0 -17 5
-35 10 -18 6 -44 12 -58 15 -14 2 -36 7 -50 10 -14 4 -34 8 -45 9 -11 2 -33 6
-50 8 -139 24 -208 29 -418 31 -103 2 -188 1 -190 0z m-132 -1108 c33 -3 76
-11 95 -16 19 -6 43 -13 53 -15 26 -6 124 -51 143 -67 108 -88 152 -151 192
-278 29 -90 58 -315 53 -397 -1 -17 -1 -40 0 -55 2 -24 -11 -213 -16 -243 -3
-16 -10 -57 -16 -90 -5 -33 -11 -67 -12 -75 -2 -8 -5 -19 -8 -25 -4 -5 -9 -22
-13 -37 -3 -15 -11 -40 -18 -55 -6 -15 -12 -30 -13 -33 -8 -26 -36 -75 -72
-126 -88 -127 -201 -200 -372 -240 -50 -12 -285 -10 -334 2 -26 7 -48 12 -50
12 -12 -1 -100 28 -129 43 -21 11 -38 17 -38 13 0 -3 -15 5 -34 19 -18 15 -36
24 -38 22 -3 -3 -13 4 -23 15 -10 11 -23 20 -30 20 -7 0 -19 8 -27 18 -14 15
-16 96 -16 695 l0 678 22 20 c11 11 41 33 66 49 25 16 50 34 57 40 7 5 18 10
24 10 7 0 20 6 28 14 15 13 152 61 202 71 13 3 53 8 89 11 36 4 66 7 67 8 4 3
113 -2 168 -8z m-2675 -2511 c74 -9 201 -47 265 -78 78 -38 168 -105 162 -121
-3 -7 -1 -19 3 -26 5 -8 6 -18 3 -23 -5 -9 -7 -120 -3 -142 1 -5 2 -14 1 -20
-1 -5 -2 -265 -2 -577 l0 -566 -52 -40 c-112 -86 -248 -149 -357 -167 -25 -4
-54 -9 -65 -11 -27 -6 -221 -5 -263 1 -96 13 -121 17 -164 30 -101 29 -188 82
-233 141 -31 41 -80 153 -90 206 -7 43 -14 84 -21 128 -10 62 -11 403 -3 475
10 77 17 129 23 162 8 39 48 176 56 192 5 9 19 39 31 66 91 203 280 355 462
372 34 3 63 7 65 8 4 4 127 -3 182 -10z"/>
</g>
</svg>
